<svg version="1.1" id="Layer_1" xmlns="http://www.w3.org/2000/svg" xmlns:xlink="http://www.w3.org/1999/xlink" x="0px" y="0px" viewBox="0 0 768.3 312.7">
    <path d="M211.2,208C160.4,272.6,8.9,318.2,22.3,286.3c7.7-18.4,68.5-54.6,191-81.1l-2.1,2.8m39.9-10.3c234.8-40.4,525.2-19.8,525.2-19.8C464.9,151,254.5,190.1,254.5,190.1c10.8-28.7-5.9-45.8-42.6-54.4-43.3-10.2-96.9-7.3-99.3-15.1-7-22.6,105.3-69,161.5-73.8,39.5-3.5,30.7-40.2-2.4-36.9C236.8,13.4,125.8,40.5,86.6,96c-15.9,22.5-21.3,53.1,22.8,57.1,72.4,6.6,124,11.6,109,43.6-77.9,15.5-145.9,38.6-192.2,71.5-27.3,19.3-27.8,49.2,24.6,41.9,95.7-13.4,170.7-64.8,195.3-103.5Z" transform="translate(-7.9 -9.7)"></path>
    <path d="M457.5,120.5c2,10.4,14.1,13.7,27.6,13.7a27.6,27.6,0,0,1-10,10.5c-10.2,6.2-22.1,5.7-26.6-1.1s-.4-16.7,9-23.1m27.7.4a11.4,11.4,0,0,1,1.5,3.6c-5.7-.5-11.4-2-15.5-6-1.1-1.1-1.2-2.1-.7-2.9,6.2-.8,11.9,1,14.7,5.3m50,5.5c1.6,8.1,13.8,8.7,30.5,7.4a22.6,22.6,0,0,1-11.2,12.5c-10,5.4-20.6,5-24.6-1.8s-.8-12.7,5.3-18.1m29.4-2c-9.9.1-18.7-.7-18.2-4.2,7.6-2.2,14.6-.6,18.2,4.2m141.8,4.8c.4,1.4-.3,2.1-2.8,3.2-7.3,3.3-24.7,7.4-24.7,7.4v-.3c1.3-12.6,26.4-15,27.5-10.3M288.7,128c-11.4-1.1-5.2,2.9-10.2,19.3-1.7,5.9-4.2,14.6-3.4,20.7,1.4,11.6,15,11.6,22.4,7.2,14.1-8.3,46-48.5,56.9-48.8,3.4-.2,4,4.8,5.5,22.7.7,7.4,2.3,13.2,9.4,16,10.1,4.1,26.8-4.7,33.7-8s18.5-11.5,25.5-17a18.6,18.6,0,0,0,2.8,12.3c7.7,11.6,28.1,12.3,45.6,1.6,8.8-5.5,15.2-12.9,18.4-20.3a143.3,143.3,0,0,0,23.4-4.5c-5.1,7.5-6.7,15.8-3.1,21.8,6,10.2,23.5,11.8,39.3,3.4,9.8-5.2,16.8-13.4,19.2-21.3l7.2-.8c20.4-2.1,33.2-5.4,41.5-6.5,5.7-.7,7.4,0,7.4,1.5s-37.8,17.1-32,28.4c2.6,5.1,15,4.9,19.9,4.7,15-.5,43.5-9,51.9-11.4,3.5,5.9,10.8,10,17.4,11.6,27,6.5,62.9-2.8,73.1-9.3,1.8-1.1,1.8-3,.1-2.1-9.8,5.1-57.3,16.5-77.1.7a8.3,8.3,0,0,1-2.8-3.5l4.7-1.3c10-2.5,30.9-7.8,32.4-14.8a2.2,2.2,0,0,0,.1-.8c.1-1.7-1-3.3-3.1-4.8-6.4-4.7-18.4-5.7-29.2-2.6-9.2,2.6-18.5,11.2-17.6,20.8-8.7,2.3-27.4,7.4-43.6,7.5-3.4,0-9.5-.3-7-3.4,3.9-5,25.3-13,29.4-20.3s-1.5-11.6-9.7-11.2-37.9,6.8-54.2,8l-8,.5a16,16,0,0,0-1.7-4.6c-6-10.2-23.3-12.3-39.1-3.8a37.8,37.8,0,0,0-4.3,2.6c-6.8,2.3-24.4,6.4-32.4,6.8a18.6,18.6,0,0,0-2.8-11.6c-7.7-11.6-28.1-12.3-45.6-1.5a50.9,50.9,0,0,0-9.8,7.8h0s-17.3,17.2-37.9,24.5c-4.7,1.6-13.9,5-16.9.5-1.5-2.2-2-6.3-2.3-9.4-1.1-11.3-4.4-19.4-9.3-23-21.5-16-60.1,23.1-71.8,32.1,1.3-9.1-2.4-15.4-12.3-16.4" transform="translate(-7.9 -9.7)"></path>
    <path d="M296.2,309.9c0,4.4-.8,7.6-2.3,9.5s-4.1,2.8-7.6,2.8-6.6-1-8.2-2.9-2.5-5.2-2.5-9.9V210.6c0-3.7.7-6.1,2-7.5s4.1-1.9,8-1.9h39.2c11.6,0,20.4,3.1,26.6,9.4s9.1,15.4,9.1,27.4a50.6,50.6,0,0,1-2.3,15.6,33.7,33.7,0,0,1-6.9,11.8,31.2,31.2,0,0,1-10.9,7.5,35.9,35.9,0,0,1-14.2,2.6H301.6c-2.3,0-3.8.4-4.4,1.2s-1,2.4-1,5Zm0-56.3c0,2.2.3,3.6,1,4.2s2.1.9,4.4.9H320c6.4,0,11.4-1.8,14.8-5.3s5.1-8.7,5.1-15.5-1.6-11.5-4.8-14.7-8.4-4.7-15.6-4.7H301.4c-2.1,0-3.6.3-4.2.8s-1,1.8-1,3.7Z" transform="translate(-7.9 -9.7)"></path>
    <path d="M387,309.9c0,4.9-.7,8.2-2,9.9s-3.8,2.5-7.4,2.5-6.4-.8-7.8-2.5-2.2-4.9-2.2-9.6V240.8c0-4.2.8-7.3,2.2-9.3s3.9-3,7.3-3a9.7,9.7,0,0,1,4.7,1.2,6.3,6.3,0,0,1,3.2,3l.7,1.2a2.3,2.3,0,0,0,.5.7,1.7,1.7,0,0,0,1.4,1,1.2,1.2,0,0,0,.8-.2l1-.6,2.2-1.3a33.4,33.4,0,0,1,6.7-3.5,18.4,18.4,0,0,1,6.6-1.2,14.9,14.9,0,0,1,9.1,2.6,8.6,8.6,0,0,1,3.4,7.2,9.6,9.6,0,0,1-9.6,9.5h-.5l-5.2-.5h-1.7a15.4,15.4,0,0,0-9.6,2.8,9.9,9.9,0,0,0-3,4.9,37.4,37.4,0,0,0-.8,8.8Z" transform="translate(-7.9 -9.7)"></path>
    <path d="M416.4,275.9c0-15.8,3.1-27.5,9.1-35s15.3-11.4,27.9-11.4,21.9,3.8,28,11.4,9.1,19.2,9.1,35-3.1,27.5-9.1,35.1-15.4,11.3-28,11.3-21.9-3.7-27.9-11.3S416.4,291.7,416.4,275.9ZM438.9,254a27.2,27.2,0,0,0-2.4,8.5,93.6,93.6,0,0,0-.7,13.4,94.3,94.3,0,0,0,.7,13.5,24.5,24.5,0,0,0,2.4,8.4,13,13,0,0,0,5.7,5.9,18.9,18.9,0,0,0,8.9,2.1,18.4,18.4,0,0,0,8.8-2.1,13,13,0,0,0,5.7-5.9,29.3,29.3,0,0,0,2.5-8.5,116.3,116.3,0,0,0,.6-13.4,118.3,118.3,0,0,0-.6-13.5A27.7,27.7,0,0,0,468,254a13.8,13.8,0,0,0-5.8-5.9,17.1,17.1,0,0,0-8.7-2.2,17.8,17.8,0,0,0-8.9,2.2A13,13,0,0,0,438.9,254Z" transform="translate(-7.9 -9.7)"></path>
    <path d="M497.1,247.2a5.5,5.5,0,0,1-4.6-2.4,9.7,9.7,0,0,1-1.8-6,10.1,10.1,0,0,1,1.6-5.5,4.8,4.8,0,0,1,3.8-2.3h2.3a3.4,3.4,0,0,0,2.4-1.2,5.9,5.9,0,0,0,.6-3.3v-7.6c0-6.1,1.7-10.8,5.2-14.3s8.4-5.1,14.6-5.1,8.9.9,11.9,2.8,4.6,4.2,4.6,7.2a7.4,7.4,0,0,1-2,5.3,6.4,6.4,0,0,1-4.7,2.1h-1.1l-1.5-.2a4.1,4.1,0,0,0-1.7-.4h-1.1c-3.3,0-4.9,2.2-4.9,6.6v4.3a3.5,3.5,0,0,0,.9,2.8,4.3,4.3,0,0,0,3,.8h3.3q8.1,0,8.1,8.1c0,2.9-.7,4.9-2.1,6.2s-3.6,2-6.5,2.2l-3.2.2a5,5,0,0,0-2.9.8c-.4.3-.6,1.3-.6,2.9v60.3q0,10.8-9.6,10.8c-6.5,0-9.7-3.5-9.7-10.5V250.9c0-2.4-.9-3.7-2.7-3.7Z" transform="translate(-7.9 -9.7)"></path>
    <path d="M541,211.3c0-3.7.9-6.5,2.7-8.6a8.9,8.9,0,0,1,7.1-3,9.3,9.3,0,0,1,7.3,3c1.9,2.1,2.8,4.9,2.8,8.4a11.7,11.7,0,0,1-2.7,8.1,8.9,8.9,0,0,1-7.1,3C544.4,222.2,541,218.6,541,211.3Zm20,100.4c0,7.1-3.1,10.6-9.4,10.6a9.5,9.5,0,0,1-7.4-2.9c-1.7-2-2.5-4.8-2.5-8.3V240.9c0-4.2.7-7.2,2.1-9.1s3.8-2.8,7.1-2.8c6.8,0,10.1,3.9,10.1,11.8Z" transform="translate(-7.9 -9.7)"></path>
    <path d="M593.4,312.4a9.8,9.8,0,0,1-2.7,7.1,9.3,9.3,0,0,1-7,2.8,9.1,9.1,0,0,1-7-2.8,10.5,10.5,0,0,1-2.6-7.3V211.1c0-7.8,3.1-11.8,9.4-11.8s9.9,4,9.9,11.8Z" transform="translate(-7.9 -9.7)"></path>
    <path d="M628,282.1q-3.4,0-4.2.6c-.5.5-.7,1.5-.7,3.2,0,6,1.6,10.8,4.7,14.2s7.6,5.2,13.2,5.2a21.8,21.8,0,0,0,10.1-2.3c2.9-1.5,5.7-4.1,8.6-7.9a22.4,22.4,0,0,1,3.9-4.1,7.1,7.1,0,0,1,4.3-1.2,8.3,8.3,0,0,1,6.1,2.6,8.8,8.8,0,0,1,2.4,6.2c0,3.2-1.7,6.9-5.2,11-7.5,8.5-17.6,12.7-30.3,12.7-25.4,0-38-15.2-38-45.7,0-15.8,3.2-27.7,9.5-35.7S628.2,229,640.7,229a40.7,40.7,0,0,1,17,3.5,30.7,30.7,0,0,1,12.3,9.8,29.7,29.7,0,0,1,5,11.1,64.3,64.3,0,0,1,1.6,15.7,44.8,44.8,0,0,1-.5,7.4,9.1,9.1,0,0,1-1.7,4.1,2.8,2.8,0,0,1-1.8,1.3,48.3,48.3,0,0,1-5.2.2Zm-4.4-19.6c0,1.5.2,2.5.8,2.9a5.7,5.7,0,0,0,3.2.6h25c1.9,0,3.1-.3,3.7-.9s.9-1.7.9-3.6a15.6,15.6,0,0,0-4.7-11.7,17,17,0,0,0-12.1-4.6,16.4,16.4,0,0,0-12.1,4.8C625.1,253.1,623.6,257.3,623.6,262.5Z" transform="translate(-7.9 -9.7)"></path>
    <path d="M705.6,309.9c0,4.9-.6,8.2-2,9.9s-3.7,2.5-7.3,2.5-6.5-.8-7.9-2.5-2.2-4.9-2.2-9.6V240.8c0-4.2.8-7.3,2.3-9.3s3.9-3,7.3-3a9.3,9.3,0,0,1,4.6,1.2,6.3,6.3,0,0,1,3.2,3l.7,1.2.5.7a1.7,1.7,0,0,0,1.5,1,1.1,1.1,0,0,0,.7-.2l1.1-.6,2.1-1.3a36.3,36.3,0,0,1,6.7-3.5,18.4,18.4,0,0,1,6.6-1.2c3.8,0,6.9.9,9.1,2.6a8.4,8.4,0,0,1,3.4,7.2,9.4,9.4,0,0,1-9.5,9.5H726l-5.3-.5h-1.6c-4,0-7.2.9-9.7,2.8a10.7,10.7,0,0,0-3,4.9,37.4,37.4,0,0,0-.8,8.8Z" transform="translate(-7.9 -9.7)"></path>
    <path d="M757.2,210.6a10.8,10.8,0,1,1-10.8-10.5A10.6,10.6,0,0,1,757.2,210.6Zm-19,0a8.2,8.2,0,0,0,8.3,8.4,8,8,0,0,0,8-8.3c0-4.7-3.4-8.5-8.1-8.5A8.2,8.2,0,0,0,738.2,210.6Zm6.5,5.5h-2.4V205.6a20.3,20.3,0,0,1,4-.3,6.3,6.3,0,0,1,3.7.8,2.7,2.7,0,0,1,1,2.3,2.7,2.7,0,0,1-2.2,2.4h0c1.1.4,1.6,1.2,2,2.6a10,10,0,0,0,.7,2.6h-2.6a9,9,0,0,1-.8-2.5c-.2-1.2-.9-1.7-2.2-1.7h-1.2Zm.1-5.9h1.1c1.4,0,2.5-.5,2.5-1.6s-.7-1.6-2.3-1.6l-1.3.2Z" transform="translate(-7.9 -9.7)"></path>
</svg>
