<svg version="1.1" id="Layer_1" xmlns="http://www.w3.org/2000/svg" xmlns:xlink="http://www.w3.org/1999/xlink" x="0px" y="0px" viewBox="0 0 768.3 312.7" fill="#cc2349">
    <path d="M211.2,208C160.4,272.6,8.9,318.2,22.3,286.3c7.7-18.4,68.5-54.6,191-81.1l-2.1,2.8m39.9-10.3c234.8-40.4,525.2-19.8,525.2-19.8C464.9,151,254.5,190.1,254.5,190.1c10.8-28.7-5.9-45.8-42.6-54.4-43.3-10.2-96.9-7.3-99.3-15.1-7-22.6,105.3-69,161.5-73.8,39.5-3.5,30.7-40.2-2.4-36.9C236.8,13.4,125.8,40.5,86.6,96c-15.9,22.5-21.3,53.1,22.8,57.1,72.4,6.6,124,11.6,109,43.6-77.9,15.5-145.9,38.6-192.2,71.5-27.3,19.3-27.8,49.2,24.6,41.9,95.7-13.4,170.7-64.8,195.3-103.5Z" transform="translate(-7.9 -9.7)"></path>
    <path d="M457.5,120.5c2,10.4,14.1,13.7,27.6,13.7a27.6,27.6,0,0,1-10,10.5c-10.2,6.2-22.1,5.7-26.6-1.1s-.4-16.7,9-23.1m27.7.4a11.4,11.4,0,0,1,1.5,3.6c-5.7-.5-11.4-2-15.5-6-1.1-1.1-1.2-2.1-.7-2.9,6.2-.8,11.9,1,14.7,5.3m50,5.5c1.6,8.1,13.8,8.7,30.5,7.4a22.6,22.6,0,0,1-11.2,12.5c-10,5.4-20.6,5-24.6-1.8s-.8-12.7,5.3-18.1m29.4-2c-9.9.1-18.7-.7-18.2-4.2,7.6-2.2,14.6-.6,18.2,4.2m141.8,4.8c.4,1.4-.3,2.1-2.8,3.2-7.3,3.3-24.7,7.4-24.7,7.4v-.3c1.3-12.6,26.4-15,27.5-10.3M288.7,128c-11.4-1.1-5.2,2.9-10.2,19.3-1.7,5.9-4.2,14.6-3.4,20.7,1.4,11.6,15,11.6,22.4,7.2,14.1-8.3,46-48.5,56.9-48.8,3.4-.2,4,4.8,5.5,22.7.7,7.4,2.3,13.2,9.4,16,10.1,4.1,26.8-4.7,33.7-8s18.5-11.5,25.5-17a18.6,18.6,0,0,0,2.8,12.3c7.7,11.6,28.1,12.3,45.6,1.6,8.8-5.5,15.2-12.9,18.4-20.3a143.3,143.3,0,0,0,23.4-4.5c-5.1,7.5-6.7,15.8-3.1,21.8,6,10.2,23.5,11.8,39.3,3.4,9.8-5.2,16.8-13.4,19.2-21.3l7.2-.8c20.4-2.1,33.2-5.4,41.5-6.5,5.7-.7,7.4,0,7.4,1.5s-37.8,17.1-32,28.4c2.6,5.1,15,4.9,19.9,4.7,15-.5,43.5-9,51.9-11.4,3.5,5.9,10.8,10,17.4,11.6,27,6.5,62.9-2.8,73.1-9.3,1.8-1.1,1.8-3,.1-2.1-9.8,5.1-57.3,16.5-77.1.7a8.3,8.3,0,0,1-2.8-3.5l4.7-1.3c10-2.5,30.9-7.8,32.4-14.8a2.2,2.2,0,0,0,.1-.8c.1-1.7-1-3.3-3.1-4.8-6.4-4.7-18.4-5.7-29.2-2.6-9.2,2.6-18.5,11.2-17.6,20.8-8.7,2.3-27.4,7.4-43.6,7.5-3.4,0-9.5-.3-7-3.4,3.9-5,25.3-13,29.4-20.3s-1.5-11.6-9.7-11.2-37.9,6.8-54.2,8l-8,.5a16,16,0,0,0-1.7-4.6c-6-10.2-23.3-12.3-39.1-3.8a37.8,37.8,0,0,0-4.3,2.6c-6.8,2.3-24.4,6.4-32.4,6.8a18.6,18.6,0,0,0-2.8-11.6c-7.7-11.6-28.1-12.3-45.6-1.5a50.9,50.9,0,0,0-9.8,7.8h0s-17.3,17.2-37.9,24.5c-4.7,1.6-13.9,5-16.9.5-1.5-2.2-2-6.3-2.3-9.4-1.1-11.3-4.4-19.4-9.3-23-21.5-16-60.1,23.1-71.8,32.1,1.3-9.1-2.4-15.4-12.3-16.4" transform="translate(-7.9 -9.7)"></path>
</svg>
